<mxfile host="app.diagrams.net" agent="Mozilla/5.0 (Windows NT 10.0; Win64; x64) AppleWebKit/537.36 (KHTML, like Gecko) Chrome/131.0.0.0 Safari/537.36" version="24.9.3">
  <diagram name="Страница — 1" id="Eo5-1OAEQYfMKQVAyOL9">
    <mxGraphModel dx="712" dy="771" grid="1" gridSize="10" guides="1" tooltips="1" connect="1" arrows="1" fold="1" page="1" pageScale="1" pageWidth="827" pageHeight="1169" math="0" shadow="0">
      <root>
        <mxCell id="0" />
        <mxCell id="1" parent="0" />
        <mxCell id="trYCLFsslDY02p5nDbqs-4" value="" style="edgeStyle=orthogonalEdgeStyle;rounded=0;orthogonalLoop=1;jettySize=auto;html=1;" edge="1" parent="1" source="trYCLFsslDY02p5nDbqs-1" target="trYCLFsslDY02p5nDbqs-3">
          <mxGeometry relative="1" as="geometry" />
        </mxCell>
        <mxCell id="trYCLFsslDY02p5nDbqs-1" value="Start" style="ellipse;whiteSpace=wrap;html=1;fillColor=#d5e8d4;strokeColor=#82b366;" vertex="1" parent="1">
          <mxGeometry x="210" width="120" height="80" as="geometry" />
        </mxCell>
        <mxCell id="trYCLFsslDY02p5nDbqs-2" value="End" style="ellipse;whiteSpace=wrap;html=1;fillColor=#f8cecc;strokeColor=#b85450;" vertex="1" parent="1">
          <mxGeometry x="480" y="520" width="120" height="80" as="geometry" />
        </mxCell>
        <mxCell id="trYCLFsslDY02p5nDbqs-6" value="" style="edgeStyle=orthogonalEdgeStyle;rounded=0;orthogonalLoop=1;jettySize=auto;html=1;" edge="1" parent="1" source="trYCLFsslDY02p5nDbqs-3" target="trYCLFsslDY02p5nDbqs-5">
          <mxGeometry relative="1" as="geometry" />
        </mxCell>
        <mxCell id="trYCLFsslDY02p5nDbqs-3" value="int n" style="rounded=0;whiteSpace=wrap;html=1;" vertex="1" parent="1">
          <mxGeometry x="240" y="130" width="60" height="30" as="geometry" />
        </mxCell>
        <mxCell id="trYCLFsslDY02p5nDbqs-8" value="" style="edgeStyle=orthogonalEdgeStyle;rounded=0;orthogonalLoop=1;jettySize=auto;html=1;" edge="1" parent="1" source="trYCLFsslDY02p5nDbqs-5" target="trYCLFsslDY02p5nDbqs-7">
          <mxGeometry relative="1" as="geometry" />
        </mxCell>
        <mxCell id="trYCLFsslDY02p5nDbqs-5" value="&lt;div&gt;cout &amp;lt;&amp;lt; &quot;Введіть n: &quot;&lt;/div&gt;&lt;div&gt;cin &amp;gt;&amp;gt; n&lt;/div&gt;" style="shape=parallelogram;perimeter=parallelogramPerimeter;whiteSpace=wrap;html=1;fixedSize=1;" vertex="1" parent="1">
          <mxGeometry x="140" y="200" width="260" height="30" as="geometry" />
        </mxCell>
        <mxCell id="trYCLFsslDY02p5nDbqs-10" value="" style="edgeStyle=orthogonalEdgeStyle;rounded=0;orthogonalLoop=1;jettySize=auto;html=1;" edge="1" parent="1" source="trYCLFsslDY02p5nDbqs-7" target="trYCLFsslDY02p5nDbqs-9">
          <mxGeometry relative="1" as="geometry" />
        </mxCell>
        <mxCell id="trYCLFsslDY02p5nDbqs-7" value="double suma = 1" style="rounded=0;whiteSpace=wrap;html=1;" vertex="1" parent="1">
          <mxGeometry x="220" y="250" width="100" height="30" as="geometry" />
        </mxCell>
        <mxCell id="trYCLFsslDY02p5nDbqs-12" value="" style="edgeStyle=orthogonalEdgeStyle;rounded=0;orthogonalLoop=1;jettySize=auto;html=1;" edge="1" parent="1" source="trYCLFsslDY02p5nDbqs-9" target="trYCLFsslDY02p5nDbqs-11">
          <mxGeometry relative="1" as="geometry" />
        </mxCell>
        <mxCell id="trYCLFsslDY02p5nDbqs-16" style="edgeStyle=orthogonalEdgeStyle;rounded=0;orthogonalLoop=1;jettySize=auto;html=1;exitX=1;exitY=0.5;exitDx=0;exitDy=0;entryX=0.5;entryY=0;entryDx=0;entryDy=0;" edge="1" parent="1" source="trYCLFsslDY02p5nDbqs-9" target="trYCLFsslDY02p5nDbqs-15">
          <mxGeometry relative="1" as="geometry" />
        </mxCell>
        <mxCell id="trYCLFsslDY02p5nDbqs-9" value="for (int i = 2; i &amp;lt;= n; i++)" style="rhombus;whiteSpace=wrap;html=1;" vertex="1" parent="1">
          <mxGeometry x="192.5" y="320" width="155" height="60" as="geometry" />
        </mxCell>
        <mxCell id="trYCLFsslDY02p5nDbqs-14" style="edgeStyle=orthogonalEdgeStyle;rounded=0;orthogonalLoop=1;jettySize=auto;html=1;exitX=0.5;exitY=1;exitDx=0;exitDy=0;" edge="1" parent="1" source="trYCLFsslDY02p5nDbqs-11">
          <mxGeometry relative="1" as="geometry">
            <mxPoint x="270" y="300" as="targetPoint" />
            <Array as="points">
              <mxPoint x="270" y="490" />
              <mxPoint x="141" y="490" />
            </Array>
          </mxGeometry>
        </mxCell>
        <mxCell id="trYCLFsslDY02p5nDbqs-11" value="suma += 1.0 / i" style="rounded=0;whiteSpace=wrap;html=1;" vertex="1" parent="1">
          <mxGeometry x="210" y="410" width="120" height="60" as="geometry" />
        </mxCell>
        <mxCell id="trYCLFsslDY02p5nDbqs-17" value="" style="edgeStyle=orthogonalEdgeStyle;rounded=0;orthogonalLoop=1;jettySize=auto;html=1;" edge="1" parent="1" source="trYCLFsslDY02p5nDbqs-15" target="trYCLFsslDY02p5nDbqs-2">
          <mxGeometry relative="1" as="geometry" />
        </mxCell>
        <mxCell id="trYCLFsslDY02p5nDbqs-15" value="cout &amp;lt;&amp;lt; &quot;Сума перших &quot; &amp;lt;&amp;lt; n &amp;lt;&amp;lt; &quot; членів ряду: &quot; &amp;lt;&amp;lt; suma &amp;lt;&amp;lt; endl" style="shape=parallelogram;perimeter=parallelogramPerimeter;whiteSpace=wrap;html=1;fixedSize=1;" vertex="1" parent="1">
          <mxGeometry x="350" y="425" width="380" height="30" as="geometry" />
        </mxCell>
      </root>
    </mxGraphModel>
  </diagram>
</mxfile>
